<?xml version="1.0" standalone="no"?><!DOCTYPE svg PUBLIC "-//W3C//DTD SVG 1.1//EN" "http://www.w3.org/Graphics/SVG/1.1/DTD/svg11.dtd"><svg t="1659538451293" class="icon" viewBox="0 0 1024 1024" version="1.1" xmlns="http://www.w3.org/2000/svg" p-id="1620" xmlns:xlink="http://www.w3.org/1999/xlink" width="200" height="200"><defs><style type="text/css">@font-face { font-family: feedback-iconfont; src: url("//at.alicdn.com/t/font_1031158_u69w8yhxdu.woff2?t=1630033759944") format("woff2"), url("//at.alicdn.com/t/font_1031158_u69w8yhxdu.woff?t=1630033759944") format("woff"), url("//at.alicdn.com/t/font_1031158_u69w8yhxdu.ttf?t=1630033759944") format("truetype"); }
</style></defs><path d="M521.386667 554.666667a197.973333 197.973333 0 0 0 85.333333-164.266667 193.28 193.28 0 1 0-386.56 0A197.973333 197.973333 0 0 0 309.76 554.666667 301.653333 301.653333 0 0 0 85.333333 843.946667 52.053333 52.053333 0 0 0 137.386667 896h554.666666a52.053333 52.053333 0 0 0 52.053334-52.053333A301.653333 301.653333 0 0 0 521.386667 554.666667zM277.333333 388.693333a138.24 138.24 0 1 1 138.24 141.653334A139.946667 139.946667 0 0 1 277.333333 388.693333z m-136.96 452.266667A246.186667 246.186667 0 0 1 386.56 597.333333h58.026667a246.186667 246.186667 0 0 1 246.186666 243.2z" fill="#333333" p-id="1621"></path><path d="M725.333333 505.173333a198.826667 198.826667 0 0 0 76.373334-156.586666 193.28 193.28 0 0 0-237.653334-191.573334 28.16 28.16 0 0 0-20.48 33.28 27.733333 27.733333 0 0 0 33.28 20.48 130.56 130.56 0 0 1 31.573334-3.84 142.08 142.08 0 0 1 16.64 282.453334 11.946667 11.946667 0 0 0-5.12 0 27.306667 27.306667 0 0 0-17.066667 28.586666 27.733333 27.733333 0 0 0 27.306667 23.893334 246.613333 246.613333 0 0 1 246.186666 243.626666h-59.306666a27.306667 27.306667 0 1 0 0 54.613334h59.733333a52.053333 52.053333 0 0 0 52.48-52.053334A301.653333 301.653333 0 0 0 725.333333 505.173333z" fill="#333333" p-id="1622"></path></svg>